PathFileType	4	(X/Y/Z)	C:/Users/opensim2020/Desktop/walking_exp_matlab/subject01_walking15_straight_03.trc																																																																																																																															
DataRate	CameraRate	NumFrames	NumMarkers	Units	OrigDataRate	OrigDataStartFrame	OrigNumFrames																																																																																																																											
100	100	6	43	mm	100	1654	145																																																																																																																											
Frame#	Time	LFHD			RFHD			LBHD			RBHD			C7			T10			CLAV			STRN			RBAK			LSHO			LUPA			LELB			LFRM			LWRA			LWRB			LFIN			RSHO			RUPA			RELB			RFRM			RWRA			RWRB			RFIN			LASI			RASI			LPSI			RPSI			LTHI			LKNE			LTIB			LANK			LHEE			LTOE			RTHI			RKNE			RTIB			RANK			RHEE			RTOE			*39			*40			*41			*42		
		X1	Y1	Z1	X2	Y2	Z2	X3	Y3	Z3	X4	Y4	Z4	X5	Y5	Z5	X6	Y6	Z6	X7	Y7	Z7	X8	Y8	Z8	X9	Y9	Z9	X10	Y10	Z10	X11	Y11	Z11	X12	Y12	Z12	X13	Y13	Z13	X14	Y14	Z14	X15	Y15	Z15	X16	Y16	Z16	X17	Y17	Z17	X18	Y18	Z18	X19	Y19	Z19	X20	Y20	Z20	X21	Y21	Z21	X22	Y22	Z22	X23	Y23	Z23	X24	Y24	Z24	X25	Y25	Z25	X26	Y26	Z26	X27	Y27	Z27	X28	Y28	Z28	X29	Y29	Z29	X30	Y30	Z30	X31	Y31	Z31	X32	Y32	Z32	X33	Y33	Z33	X34	Y34	Z34	X35	Y35	Z35	X36	Y36	Z36	X37	Y37	Z37	X38	Y38	Z38	X39	Y39	Z39	X40	Y40	Z40	X41	Y41	Z41	X42	Y42	Z42	X43	Y43	Z43
																																																																																																																																		
55	0.54	-126.48001	1647.04834	1399.23718	-95.88658	1657.54102	1507.79639	-242.07289	1612.37012	1427.93506	-212.3302	1622.23938	1543.58813	-285.17126	1422.44019	1466.04883	-343.08646	1132.41077	1486.60986	-145.22774	1346.98218	1477.1283	-113.89327	1188.57361	1482.00232	-355.88266	1239.50427	1544.82446	-194.37645	1378.427	1313.94153	-218.85374	1196.0437	1230.30176	-220.41991	1041.33496	1225.79456	-119.86933	976.15649	1217.43994	11.52704	946.77295	1252.29211	-22.05705	904.19434	1228.18103	59.81706	887.68872	1222.92444	-211.36456	1392.94543	1623.44641	-329.15088	1219.37061	1715.45361	-358.75989	1100.5116	1722.99072	-383.27884	986.45685	1760.70862	-358.60101	844.88696	1754.92578	-400.17609	866.84723	1789.28345	-397.76361	779.72009	1797.02905	-182.21512	921.01062	1387.37048	-177.10509	928.00909	1603.89746	-365.987	933.12299	1448.80176	-359.65628	931.50159	1593.06494	-264.58191	588.24908	1347.73511	-300.49323	456.06769	1368.50122	-389.23154	286.5228	1370.87744	-458.14328	80.92043	1433.0614	-504.69522	59.09009	1489.50745	-319.729	32.04882	1415.19336	-118.91318	611.48669	1674.5249	-57.33287	466.77353	1649.48376	-78.46113	292.6748	1664.54114	-54.76814	83.10398	1625.66101	-93.5621	36.08947	1574.43665	86.76781	68.32681	1631.34863	-107.48741	1691.18091	1485.49194	1973.16516	1023.51819	-3101.8772	2012.56641	1022.19672	-3140.62329	NaN	NaN	NaN
56	0.55	-114.50628	1646.24573	1400.64465	-83.99645	1656.64038	1509.2865	-230.05212	1611.26514	1429.2406	-200.43098	1620.95166	1544.87549	-272.69598	1421.16553	1466.98975	-330.207	1131.13135	1487.23547	-132.56357	1345.96497	1478.1178	-101.55008	1187.42102	1482.36157	-343.08591	1237.71704	1545.12927	-181.6124	1377.76135	1314.95691	-205.51949	1195.50562	1230.98376	-206.41782	1040.96912	1225.9408	-103.80745	979.12103	1217.67664	28.29589	954.43591	1252.9054	-3.72413	910.59265	1228.7771	78.71732	897.45099	1223.34692	-199.31567	1391.71985	1624.37305	-318.12708	1218.42798	1715.40784	-347.87784	1099.89612	1722.95618	-374.32205	986.56415	1760.75671	-352.03317	844.50098	1755.31946	-393.58356	867.20532	1789.29285	-392.66849	780.0647	1797.27917	-169.28294	919.82532	1386.8988	-163.10924	926.65948	1603.66125	-352.88828	932.078	1449.56287	-345.77325	930.47803	1593.51843	-256.34378	587.94434	1347.46252	-293.87399	456.04886	1368.22644	-385.18478	287.8591	1370.6062	-457.21576	83.30375	1432.8844	-503.97803	62.15378	1489.04004	-319.52853	31.90966	1415.06958	-109.43931	608.09387	1674.4668	-44.44844	465.66663	1648.29688	-56.84555	291.85159	1664.71191	-22.36918	82.83781	1626.38147	-57.5532	32.86771	1575.30615	120.38902	75.3241	1630.99756	-95.70982	1690.23999	1487.03247	1973.09802	1023.47156	-3102.01953	2012.49158	1022.04938	-3140.72266	NaN	NaN	NaN
57	0.56	-102.46294	1645.40259	1402.23633	-72.08217	1655.74451	1510.90869	-217.90588	1610.08862	1430.61511	-188.46014	1619.72937	1546.32715	-260.17188	1419.85254	1468.15979	-317.11133	1129.69031	1487.94556	-119.80084	1344.98071	1479.24377	-88.48105	1186.43079	1483.00171	-330.30756	1235.90039	1545.68274	-168.92078	1377.18408	1316.12097	-192.1797	1195.0177	1231.7146	-192.63879	1040.82751	1226.22473	-88.37228	981.99603	1217.68127	44.53153	961.65375	1253.53442	14.01423	916.5675	1229.31287	96.78831	906.75104	1223.61792	-187.20702	1390.505	1625.36121	-307.01868	1217.54102	1715.48022	-336.88318	1099.27417	1723.19849	-364.92786	986.50684	1760.93823	-344.99896	844.11755	1755.65808	-384.35071	868.26416	1790.51941	-386.59967	780.38849	1797.51367	-156.66434	918.39008	1386.51111	-148.85104	925.26556	1603.37976	-339.63477	930.99957	1450.40161	-331.88644	929.67212	1594.40881	-247.51454	587.49261	1347.06311	-286.63168	456.01428	1368.005	-380.64102	289.21979	1370.29077	-456.02075	85.65012	1432.37427	-503.22525	65.60759	1488.44128	-319.34354	31.81391	1415.01086	-100.2303	604.57898	1675.00732	-30.97423	464.90387	1647.07507	-35.95061	291.57053	1664.96631	7.63197	83.6854	1627.09656	-26.01703	31.85051	1576.59216	150.90988	81.89814	1629.98889	-83.88526	1689.29504	1488.68176	1973.15173	1023.35553	-3101.88867	2012.49292	1022.09027	-3140.83008	NaN	NaN	NaN
58	0.57	-90.3667	1644.65295	1403.87744	-60.11543	1654.84912	1512.52966	-205.67924	1608.95215	1432.1355	-176.35313	1618.50488	1547.89038	-247.64021	1418.55005	1469.52393	-303.90735	1128.26917	1488.83472	-106.9746	1343.98291	1480.3833	-75.221	1185.56335	1483.74072	-317.40112	1234.03247	1546.50305	-156.14896	1376.71252	1317.3396	-179.03436	1194.6543	1232.5863	-178.94464	1040.33215	1226.46509	-73.04584	984.45459	1218.45569	60.24319	968.37036	1254.18445	31.04017	922.32104	1229.61475	114.4473	915.27362	1224.29736	-175.14902	1389.22522	1626.29541	-295.89755	1216.64819	1715.65796	-325.57339	1098.53601	1723.573	-355.08344	986.39783	1761.30762	-336.80066	843.60925	1756.0144	-376.13672	868.33612	1790.76819	-379.49747	780.53363	1797.76501	-143.79425	917.1842	1386.45544	-134.44681	923.81732	1602.99927	-326.2713	929.91339	1451.40955	-317.46136	928.50012	1595.41406	-238.10867	587.00629	1346.86035	-278.48819	455.83755	1367.60291	-375.46167	290.7916	1369.87878	-454.56528	88.24252	1431.61328	-502.21622	69.70941	1487.77429	-319.16824	31.76025	1414.91467	-91.04964	601.2041	1675.92969	-16.95368	464.4762	1646.12939	-16.38133	290.96512	1664.31238	34.43469	84.57489	1626.93738	1.77829	31.70201	1576.85327	178.02299	87.1754	1628.29639	-72.02598	1688.40576	1490.45337	1972.98743	1023.79993	-3102.05591	2012.43298	1022.00909	-3140.87012	NaN	NaN	NaN
59	0.58	-78.21024	1643.98291	1405.64563	-48.04966	1654.06653	1514.38159	-193.52843	1607.90869	1433.76208	-164.27217	1617.35107	1549.58508	-234.96992	1417.28015	1470.9895	-290.47891	1126.95605	1489.79211	-94.04823	1343.04688	1481.6106	-61.86848	1184.7301	1484.4884	-304.39526	1232.17126	1547.48242	-143.63396	1376.25818	1318.62256	-166.04332	1194.36719	1233.56152	-165.1758	1040.06409	1226.80969	-57.99331	986.97351	1218.83472	75.36696	974.49432	1254.71484	47.55146	927.65912	1230.05164	131.15681	923.1106	1224.46899	-163.03365	1388.03943	1627.36462	-284.54007	1215.78247	1715.96716	-314.12613	1097.82385	1724.09778	-344.66495	986.10779	1761.82214	-327.93832	843.19379	1756.46887	-367.0961	868.27692	1791.17041	-371.4278	780.45636	1798.09045	-130.67035	915.96259	1386.07935	-119.96121	922.37579	1602.63379	-312.69388	928.79443	1452.53113	-303.16418	927.36993	1596.54553	-227.72247	586.48474	1346.427	-269.65671	455.62598	1367.14624	-369.76971	292.32394	1369.33411	-453.05228	91.45689	1430.95129	-501.13675	73.99409	1486.68652	-318.94418	31.67924	1414.80261	-81.26995	598.42322	1676.74939	-3.06244	463.89194	1645.39172	1.99548	290.71396	1664.02783	57.90658	85.37012	1626.27124	26.29053	31.53309	1576.22852	202.06902	90.88586	1626.18054	-60.07581	1687.58533	1492.24402	1973.14648	1023.44641	-3101.9585	2012.50366	1021.98358	-3140.73145	NaN	NaN	NaN
60	0.59	-66.08907	1643.36279	1407.51648	-35.95133	1653.34143	1516.27722	-181.31326	1606.9845	1435.55115	-152.09192	1616.2749	1551.39294	-222.2518	1416.01038	1472.53296	-277.18716	1125.94751	1490.9696	-80.98109	1342.25012	1482.93958	-48.42416	1183.98254	1485.25806	-291.28448	1230.39148	1548.64722	-130.98964	1375.8761	1320.00647	-153.31488	1194.19641	1234.69104	-151.56705	1039.93982	1227.18201	-43.47212	989.31116	1218.95251	89.96902	980.0722	1255.18433	63.41969	932.58582	1230.4043	147.08467	930.11011	1225.08044	-150.89008	1386.86792	1628.61475	-272.88217	1215.09473	1716.46863	-302.44855	1097.13013	1724.91284	-333.66177	985.80713	1762.52515	-318.27899	842.63068	1756.97668	-357.35068	868.02313	1791.76404	-362.26358	780.15143	1798.47925	-117.41553	914.88721	1385.72266	-105.28954	921.00122	1602.41101	-298.95654	927.68115	1453.82141	-288.56705	926.22565	1597.95361	-217.01759	586.16766	1346.42285	-260.07379	455.41068	1366.5896	-363.41962	294.00116	1368.69019	-451.10907	95.01414	1429.95508	-499.65137	78.89483	1485.45325	-318.82053	31.76704	1414.8042	-70.02385	596.47485	1676.99219	10.53464	463.30533	1645.20068	18.64851	289.94296	1663.19641	78.05039	85.48677	1624.88013	47.2372	31.6598	1575.10547	222.33141	92.80495	1623.43469	-48.01278	1686.86218	1494.21533	1973.14893	1023.56494	-3102.05273	2012.57825	1022.17389	-3140.70313	NaN	NaN	NaN
